# xmcd CD database file
#
# Track frame offsets:
#	150
#	13950
#	26293
#	41688
#	56332
#	70277
#	81566
#	95159
#	109219
#	121175
#	136327
#	151151
#
# Disc length: 2198 seconds
#
# Revision: 0
# Processed by: cddbd v1.5.2PL0 Copyright (c) Steve Scherf et al.
# Submitted via: CDex 1.51
#
DISCID=9f08940c
DTITLE=Slim Dusty - Along the Road of Song
DYEAR=2005
DGENRE=Country
TTITLE0=The Showman's Song
TTITLE1=Spending My Life in the Sun
TTITLE2=I Must Have Good Terbaccy When I Smoke
TTITLE3=Sweeney
TTITLE4=Winter Winds
TTITLE5=Whiplash
TTITLE6=Down at Charley Grays
TTITLE7=Along the Road of Song
TTITLE8=Trave;;in' Through
TTITLE9=Queensland State So Fair
TTITLE10=Losin' My Blues Tonight (with Joy McKeen)
TTITLE11=Sunny Northern Rose
EXTD=YEAR: 2005
EXTT0=
EXTT1=
EXTT2=
EXTT3=
EXTT4=
EXTT5=
EXTT6=
EXTT7=
EXTT8=
EXTT9=
EXTT10=
EXTT11=
PLAYORDER=
